<?xml version="1.0" encoding="UTF-8"?><svg id="Layer_2" xmlns="http://www.w3.org/2000/svg" viewBox="0 0 439.87 497.92"><defs><style>.cls-1{fill:#25a499;}.cls-2{fill:#00686f;}.cls-3{fill:#a5d9c7;}.cls-4{fill:#bde3dc;}</style></defs><g id="Layer_1-2"><path class="cls-2" d="M0,140.63v216.67c0,11.54,6.16,22.2,16.15,27.97l187.64,108.33c9.99,5.77,22.3,5.77,32.29,0l187.64-108.33c9.99-5.77,16.15-16.43,16.15-27.97V140.63c0-11.54-6.16-22.2-16.15-27.97L236.08,4.33c-9.99-5.77-22.3-5.77-32.29,0L16.15,112.66C6.16,118.43,0,129.09,0,140.63Z"/><path class="cls-1" d="M35.2,272.27v-48.25c9.58,0,16.58-2.44,20.99-7.33,4.41-4.89,6.62-12.69,6.62-23.41v-24.48c0-21.16,4.27-36.01,12.81-44.55,8.54-8.54,22.82-12.81,42.84-12.81h23.06v46.68h-5.27c-8.54,0-14.3,2.13-17.29,6.4-2.99,4.27-4.48,12.62-4.48,25.05v7.83c0,29.32-8.59,46.11-25.76,50.38v.71c17.17,4.27,25.76,21.07,25.76,50.38v7.83c0,12.43,1.49,20.78,4.48,25.05,2.99,4.27,8.75,6.41,17.29,6.41h5.27v46.68h-23.06c-20.5,0-34.9-4.37-43.2-13.1-8.3-8.73-12.45-23.48-12.45-44.27v-24.48c0-10.62-2.18-18.41-6.55-23.34-4.37-4.93-11.39-7.4-21.07-7.4Z"/><path class="cls-3" d="M266.54,335.76v49.8h-89.52V115.5h89.52v49.8h-28.63v170.47h28.63Z"/><path class="cls-4" d="M342.86,114.76h38.74c-16.58,25.02-28.18,47.68-34.81,67.97-6.63,20.29-9.95,42.71-9.95,67.25s3.6,48.06,10.81,69.69c7.2,21.63,18.68,43.47,34.43,65.53h-39.21c-19.38-21.2-33.57-42.54-42.56-64.03-8.99-21.49-13.49-45.22-13.49-71.19s4.56-49.82,13.68-71.55c9.12-21.72,23.24-42.95,42.37-63.67Z"/></g></svg>