<?xml version="1.0" encoding="UTF-8"?><svg id="Layer_2" xmlns="http://www.w3.org/2000/svg" viewBox="0 0 440.27 672.73"><defs><style>.cls-1{fill:#25a499;}.cls-2{fill:#00686f;}.cls-3{fill:#a5d9c7;}.cls-4{fill:#bde3dc;}</style></defs><g id="Layer_1-2"><g><path class="cls-2" d="M0,140.63v216.67c0,11.54,6.16,22.2,16.15,27.97l187.64,108.33c9.99,5.77,22.3,5.77,32.29,0l187.64-108.33c9.99-5.77,16.15-16.43,16.15-27.97V140.63c0-11.54-6.16-22.2-16.15-27.97L236.08,4.33c-9.99-5.77-22.3-5.77-32.29,0L16.15,112.66C6.16,118.43,0,129.09,0,140.63Z"/><path class="cls-1" d="M35.2,272.27v-48.25c9.58,0,16.58-2.44,20.99-7.33,4.41-4.89,6.62-12.69,6.62-23.41v-24.48c0-21.16,4.27-36.01,12.81-44.55,8.54-8.54,22.82-12.81,42.84-12.81h23.06v46.68h-5.27c-8.54,0-14.3,2.13-17.29,6.4-2.99,4.27-4.48,12.62-4.48,25.05v7.83c0,29.32-8.59,46.11-25.76,50.38v.71c17.17,4.27,25.76,21.07,25.76,50.38v7.83c0,12.43,1.49,20.78,4.48,25.05,2.99,4.27,8.75,6.41,17.29,6.41h5.27v46.68h-23.06c-20.5,0-34.9-4.37-43.2-13.1-8.3-8.73-12.45-23.48-12.45-44.27v-24.48c0-10.62-2.18-18.41-6.55-23.34-4.37-4.93-11.39-7.4-21.07-7.4Z"/><path class="cls-3" d="M266.54,335.76v49.8h-89.52V115.5h89.52v49.8h-28.63v170.47h28.63Z"/><path class="cls-4" d="M342.86,114.76h38.74c-16.58,25.02-28.18,47.68-34.81,67.97-6.63,20.29-9.95,42.71-9.95,67.25s3.6,48.06,10.81,69.69c7.2,21.63,18.68,43.47,34.43,65.53h-39.21c-19.38-21.2-33.57-42.54-42.56-64.03-8.99-21.49-13.49-45.22-13.49-71.19s4.56-49.82,13.68-71.55c9.12-21.72,23.24-42.95,42.37-63.67Z"/><g><g><path class="cls-1" d="M14.14,556.36v18.04c0,1.51-.5,2.18-2.02,2.18H4.83c-1.51,0-2.02-.67-2.02-2.18v-52.7c0-1.51,.5-2.18,2.02-2.18H22.45c15.19,0,20.31,6.63,20.31,13.68v9.48c0,7.05-5.12,13.68-20.31,13.68H14.14Zm0-27.44v18.04h8.31c5.62,0,9.06-2.1,9.06-6.21v-5.54c0-4.2-3.44-6.29-9.06-6.29H14.14Z"/><path class="cls-1" d="M58.23,532.53c0-7.05,5.2-13.68,20.39-13.68s20.39,6.63,20.39,13.68v31.05c0,7.05-5.2,13.68-20.39,13.68s-20.39-6.63-20.39-13.68v-31.05Zm29.46,2.02c0-4.2-3.44-6.29-9.06-6.29s-8.98,2.1-8.98,6.29v27.02c0,4.19,3.36,6.29,8.98,6.29s9.06-2.1,9.06-6.29v-27.02Z"/><path class="cls-1" d="M133.84,567.19h18.71c1.43,0,2.1,.5,2.1,2.02v5.29c0,1.51-.67,2.1-2.1,2.1h-28.28c-1.26,0-1.76-.76-1.76-2.18v-52.7c0-1.51,.5-2.18,2.02-2.18h7.3c1.51,0,2.02,.67,2.02,2.18v45.48Z"/><path class="cls-1" d="M186.46,540.75c.5,1.34,1.34,4.11,1.43,4.45,.08-.34,.84-3.11,1.51-4.45l8.9-19.13c.5-1.18,1.01-2.1,2.43-2.1h7.22c1.43,0,2.18,.76,1.51,2.1l-15.86,33.15v19.72c0,1.43-.5,2.1-2.02,2.1h-7.3c-1.51,0-2.1-.67-2.1-2.1v-18.38l-15.95-34.49c-.59-1.26,0-2.1,1.43-2.1h8.31c1.43,0,2.01,.84,2.52,2.1l7.97,19.13Z"/><path class="cls-1" d="M264.34,546.63c1.43,0,2.1,.5,2.1,2.01v14.94c0,7.05-4.53,13.68-19.72,13.68s-19.72-6.63-19.72-13.68v-31.05c0-7.05,4.53-13.68,19.72-13.68s19.72,6.63,19.72,13.68v3.36c0,1.43-.5,2.1-1.93,2.1h-6.97c-1.51,0-2.1-.67-2.1-2.1v-1.34c0-4.2-2.94-6.29-8.56-6.29s-8.48,2.1-8.48,6.29v27.02c0,4.19,2.85,6.29,8.48,6.29s8.56-2.1,8.56-6.21v-5.62h-8.22c-1.51,0-2.18-.5-2.18-2.02v-5.37c0-1.51,.67-2.01,2.18-2.01h17.12Z"/><path class="cls-1" d="M302.23,567.19h18.71c1.43,0,2.1,.5,2.1,2.02v5.29c0,1.51-.67,2.1-2.1,2.1h-28.28c-1.26,0-1.76-.76-1.76-2.18v-52.7c0-1.51,.5-2.18,2.02-2.18h7.3c1.51,0,2.02,.67,2.02,2.18v45.48Z"/><path class="cls-1" d="M340.11,532.53c0-7.05,5.2-13.68,20.39-13.68s20.39,6.63,20.39,13.68v31.05c0,7.05-5.2,13.68-20.39,13.68s-20.39-6.63-20.39-13.68v-31.05Zm29.46,2.02c0-4.2-3.44-6.29-9.06-6.29s-8.98,2.1-8.98,6.29v27.02c0,4.19,3.36,6.29,8.98,6.29s9.06-2.1,9.06-6.29v-27.02Z"/><path class="cls-1" d="M438.17,519.52c1.43,0,2.1,.5,2.1,2.02v5.29c0,1.51-.67,2.1-2.1,2.1h-11.92v45.49c0,1.51-.5,2.18-2.02,2.18h-7.3c-1.51,0-2.1-.67-2.1-2.18v-45.49h-11.92c-1.51,0-2.1-.59-2.1-2.1v-5.29c0-1.51,.59-2.02,2.1-2.02h35.25Z"/></g><path class="cls-2" d="M26.8,671.84c-2,0-2.89-.89-3.44-2.78L2.58,599.06c-.56-1.78,.11-2.78,2.11-2.78H15.25c1.89,0,2.67,1,3.22,2.78l10.78,37.78c1.67,6,2.67,16.11,2.67,16.11,0,0,1.33-10.11,3-16l10.78-37.89c.56-1.78,1.33-2.78,3.33-2.78h9.67c1.89,0,2.56,1,2,2.78l-20.67,70.01c-.56,1.89-1.56,2.78-3.56,2.78h-9.67Z"/><path class="cls-2" d="M85.93,668.95c0,2-.67,2.89-2.67,2.89h-9.67c-2,0-2.67-.89-2.67-2.89v-69.78c0-2,.67-2.89,2.67-2.89h9.67c2,0,2.67,.89,2.67,2.89v69.78Z"/><path class="cls-2" d="M153.16,654.62c0,9.34-6,18.11-26.11,18.11s-26.12-8.78-26.12-18.11v-41.11c0-9.34,6-18.11,26.12-18.11s26.11,8.78,26.11,18.11v5.33c0,2-.67,2.78-2.56,2.78h-9.22c-2,0-2.78-.78-2.78-2.78v-2.67c0-5.56-3.89-8.33-11.33-8.33s-11.22,2.78-11.22,8.33v35.78c0,5.56,3.78,8.33,11.22,8.33s11.33-2.78,11.33-8.33v-4.22c0-2,.78-2.78,2.78-2.78h9.22c1.89,0,2.56,.78,2.56,2.78v6.89Z"/><path class="cls-2" d="M209.06,596.28c1.89,0,2.78,.67,2.78,2.67v7c0,2-.89,2.78-2.78,2.78h-15.78v60.23c0,2-.67,2.89-2.67,2.89h-9.67c-2,0-2.78-.89-2.78-2.89v-60.23h-15.78c-2,0-2.78-.78-2.78-2.78v-7c0-2,.78-2.67,2.78-2.67h46.67Z"/><path class="cls-2" d="M219.84,613.5c0-9.34,6.89-18.11,27-18.11s27,8.78,27,18.11v41.11c0,9.34-6.89,18.11-27,18.11s-27-8.78-27-18.11v-41.11Zm39,2.67c0-5.56-4.56-8.33-12-8.33s-11.89,2.78-11.89,8.33v35.78c0,5.56,4.44,8.33,11.89,8.33s12-2.78,12-8.33v-35.78Z"/><path class="cls-2" d="M304.08,643.06v25.89c0,2-.67,2.89-2.67,2.89h-9.67c-2,0-2.67-.89-2.67-2.89v-69.78c0-2,.67-2.89,2.67-2.89h23.34c20.11,0,26.89,8.78,26.89,18.11v10.56c0,6.56-3.33,12.78-12.22,16l12,28c.78,1.78-.55,2.89-2.55,2.89h-9.78c-1.55,0-2-1.11-2.78-2.89l-10.89-25.89h-11.67Zm0-34.34v21.89h11c7.45,0,12-2.78,12-8.33v-5.22c0-5.55-4.56-8.33-12-8.33h-11Z"/><path class="cls-2" d="M371.53,668.95c0,2-.67,2.89-2.67,2.89h-9.67c-2,0-2.67-.89-2.67-2.89v-69.78c0-2,.67-2.89,2.67-2.89h9.67c2,0,2.67,.89,2.67,2.89v69.78Z"/><path class="cls-2" d="M415.54,596.28c2,0,3,.89,3.56,2.78l20.67,70.01c.56,1.78-.11,2.78-2,2.78h-10c-1.89,0-2.67-1-3.22-2.78l-3.89-13.56h-20.67l-3.89,13.56c-.56,1.78-1.33,2.78-3.33,2.78h-9c-2,0-2.67-1-2.11-2.78l20.78-70.01c.56-1.89,1.44-2.78,3.44-2.78h9.67Zm-1.89,35c-1.44-4.56-3.11-18.78-3.22-20.22-.22,1.44-2.11,15.45-3.44,20.11l-3.78,12.45h14.11l-3.67-12.33Z"/></g></g></g></svg>